<svg width="30" height="35" viewBox="0 0 30 35" fill="none" xmlns="http://www.w3.org/2000/svg">
<path d="M29.0211 22.4164C27.1461 20.6418 25.7146 18.7752 25.7146 12.447C25.7146 7.11498 21.4706 2.77066 16.0715 2.24331V1.07143C16.0715 0.477122 15.5943 0 15 0C14.4057 0 13.9286 0.477122 13.9286 1.07143V2.24331C8.52946 2.77066 4.28544 7.11498 4.28544 12.447C4.28544 18.7752 2.85394 20.6418 0.978939 22.4164C0.0414355 23.312 -0.251534 24.6597 0.225588 25.8483C0.71108 27.0704 1.88296 27.8572 3.21388 27.8572H26.7861C28.117 27.8572 29.2889 27.0704 29.7744 25.8483C30.2515 24.6597 29.9586 23.312 29.0211 22.4164ZM26.7861 25.7144H3.21388C2.25963 25.7144 1.78251 24.6095 2.45216 23.9733C4.78768 21.7467 6.42831 19.2607 6.42831 12.447C6.42831 7.93529 10.2622 4.28573 15 4.28573C19.7379 4.28573 23.5718 7.93529 23.5718 12.447C23.5718 19.2356 25.1956 21.7384 27.5478 23.9733C28.2175 24.6178 27.732 25.7144 26.7861 25.7144ZM18.2341 30.0001C17.736 30.0001 17.2623 30.2777 17.0923 30.7286C16.7815 31.5521 15.9599 32.143 14.9996 32.143C14.0394 32.143 13.2177 31.5521 12.907 30.7286C12.737 30.2777 12.2631 30.0001 11.7652 30.0001H11.765C11.0544 30.0001 10.5456 30.6696 10.7655 31.3204C11.3458 33.0383 13.0263 34.2858 14.9996 34.2858C16.9729 34.2858 18.6532 33.0383 19.2337 31.3204C19.4535 30.6696 18.9449 30.0001 18.2341 30.0001Z" fill="#D0D0D0"/>
</svg>
