<svg width="30" height="30" viewBox="0 0 30 30" fill="none" xmlns="http://www.w3.org/2000/svg">
<path d="M26.25 0H3.75C1.68457 0 0 1.68457 0 3.75V20.6251C0 22.6905 1.68457 24.3751 3.75 24.3751H9.375V29.297C9.375 29.8734 10.021 30.2038 10.4956 29.861L17.8125 24.3751H26.25C28.3154 24.3751 30 22.6905 30 20.6251V3.75C30 1.68457 28.3154 0 26.25 0ZM28.125 20.6251C28.125 21.6564 27.2813 22.5001 26.25 22.5001H17.808C17.4021 22.5001 17.0071 22.6318 16.6824 22.8755L11.25 26.9532V23.4376C11.25 22.9198 10.8302 22.5001 10.3125 22.5001H3.75C2.71875 22.5001 1.875 21.6564 1.875 20.6251V3.75C1.875 2.71875 2.71875 1.875 3.75 1.875H26.25C27.2813 1.875 28.125 2.71875 28.125 3.75V20.6251ZM7.5 10.7812C6.7234 10.7812 6.09375 11.4108 6.09375 12.1875C6.09375 12.9641 6.7234 13.5937 7.5 13.5937C8.2766 13.5937 8.90625 12.9641 8.90625 12.1875C8.90625 11.4108 8.2766 10.7812 7.5 10.7812ZM22.5 10.7812C21.7234 10.7812 21.0938 11.4108 21.0938 12.1875C21.0938 12.9641 21.7234 13.5937 22.5 13.5937C23.2766 13.5937 23.9062 12.9641 23.9062 12.1875C23.9062 11.4108 23.2766 10.7812 22.5 10.7812ZM15 10.7812C14.2234 10.7812 13.5938 11.4108 13.5938 12.1875C13.5938 12.9641 14.2234 13.5937 15 13.5937C15.7766 13.5937 16.4062 12.9641 16.4062 12.1875C16.4062 11.4108 15.7766 10.7812 15 10.7812Z" fill="#1F1F1F"/>
</svg>
