<svg width="27" height="22" viewBox="0 0 27 22" fill="none" xmlns="http://www.w3.org/2000/svg">
<path d="M13.4941 13.5C15.9162 13.5 17.8797 11.5356 17.8797 9.1125C17.8797 6.68933 15.9162 4.725 13.4941 4.725C11.0722 4.725 9.10845 6.68933 9.10845 9.1125C9.10845 11.5356 11.0722 13.5 13.4941 13.5ZM13.4941 6.075C15.1679 6.075 16.5297 7.43761 16.5297 9.1125C16.5297 10.7874 15.1679 12.15 13.4941 12.15C11.8202 12.15 10.4585 10.7874 10.4585 9.1125C10.4585 7.43761 11.8203 6.075 13.4941 6.075ZM15.6046 14.85H11.3954C8.08443 14.85 5.4 17.3683 5.4 20.4749C5.4 21.0962 5.93692 21.6 6.59905 21.6H20.4009C21.0631 21.6 21.6 21.0962 21.6 20.4749C21.6 17.3683 18.9159 14.85 15.6046 14.85ZM6.75633 20.25C6.88382 17.9968 8.91582 16.2 11.3954 16.2H15.6046C18.0842 16.2 20.1162 17.9968 20.2437 20.25H6.75633ZM21.6 6.75C23.464 6.75 24.975 5.23893 24.975 3.375C24.975 1.51107 23.464 0 21.6 0C19.7362 0 18.225 1.51107 18.225 3.375C18.225 5.23893 19.7362 6.75 21.6 6.75ZM21.6 1.35C22.7166 1.35 23.625 2.25842 23.625 3.375C23.625 4.49158 22.7166 5.4 21.6 5.4C20.4834 5.4 19.575 4.49158 19.575 3.375C19.575 2.25842 20.4834 1.35 21.6 1.35ZM5.4 6.75C7.26401 6.75 8.775 5.23893 8.775 3.375C8.775 1.51107 7.26401 0 5.4 0C3.53616 0 2.025 1.51107 2.025 3.375C2.025 5.23893 3.53616 6.75 5.4 6.75ZM5.4 1.35C6.51658 1.35 7.425 2.25842 7.425 3.375C7.425 4.49158 6.51658 5.4 5.4 5.4C4.28342 5.4 3.375 4.49158 3.375 3.375C3.375 2.25842 4.28342 1.35 5.4 1.35ZM23.6705 8.1H20.925C20.4544 8.1 19.9936 8.20547 19.5552 8.41379C19.2184 8.57393 19.0747 8.9767 19.2349 9.31289C19.3951 9.64908 19.7991 9.79345 20.134 9.63326C20.3904 9.51197 20.6561 9.45 20.925 9.45H23.6705C24.7621 9.45 25.65 10.4091 25.65 11.5877V12.15C25.65 12.5231 25.9519 12.825 26.325 12.825C26.6981 12.825 27 12.5231 27 12.15V11.5877C27 9.6649 25.5063 8.1 23.6705 8.1ZM6.86602 9.63326C7.2009 9.79345 7.6056 9.64908 7.76512 9.31289C7.9253 8.9767 7.78161 8.57393 7.44479 8.41379C7.00642 8.20547 6.54564 8.1 6.075 8.1H3.32952C1.49369 8.1 0 9.6649 0 11.5877V12.15C0 12.5231 0.301894 12.825 0.675 12.825C1.04811 12.825 1.35 12.5231 1.35 12.15V11.5877C1.35 10.4091 2.23792 9.45 3.32952 9.45H6.075C6.34395 9.45 6.6096 9.51197 6.86602 9.63326Z" fill="#1F1F1F"/>
</svg>
