<svg width="27" height="24" viewBox="0 0 27 24" fill="none" xmlns="http://www.w3.org/2000/svg">
<path d="M6.50363 14.9411L11.8125 9.63062L16.2776 14.0957C16.6071 14.4252 17.1412 14.4252 17.4706 14.0958L25.0653 6.50273C25.3949 6.17319 25.3949 5.6391 25.0654 5.30961C24.7359 4.98013 24.2018 4.98008 23.8724 5.30961L16.875 12.3069L12.41 7.84023C12.0818 7.51196 11.5449 7.51196 11.2168 7.84012L5.31051 13.7464C4.98176 14.0751 4.98176 14.6107 5.31051 14.9395C5.63931 15.2699 6.17319 15.2699 6.50363 14.9411ZM26.1562 21.9375H4.21875C2.82292 21.9375 1.6875 20.8021 1.6875 19.4062V0.84375C1.6875 0.378211 1.30929 0 0.84375 0C0.378211 0 0 0.378211 0 0.84375V19.4062C0 21.7332 1.89185 23.625 4.21875 23.625H26.1562C26.6218 23.625 27 23.2468 27 22.7812C27 22.3157 26.6218 21.9375 26.1562 21.9375Z" fill="#1F1F1F"/>
</svg>
