<svg width="22" height="27" viewBox="0 0 22 27" fill="none" xmlns="http://www.w3.org/2000/svg">
<path d="M9.7875 1.0125V4.3875H5.19978C4.79883 3.39879 3.83248 2.7 2.7 2.7C1.20892 2.7 0 3.90876 0 5.4C0 6.89116 1.20892 8.1 2.7 8.1C3.83248 8.1 4.79883 7.40121 5.19978 6.4125H9.7875V20.5875H5.19978C4.79883 19.5988 3.83248 18.9 2.7 18.9C1.20892 18.9 0 20.1088 0 21.6C0 23.0912 1.20892 24.3 2.7 24.3C3.83248 24.3 4.79883 23.6012 5.19978 22.6125H9.7875V25.9875C9.7875 26.5465 10.241 27 10.8 27C11.359 27 11.8125 26.5465 11.8125 25.9875V14.5125H16.4002C16.8012 15.5012 17.7675 16.2 18.9 16.2C20.3911 16.2 21.6 14.9912 21.6 13.5C21.6 12.0088 20.3911 10.8 18.9 10.8C17.7675 10.8 16.8012 11.4988 16.4002 12.4875H11.8125V1.0125C11.8125 0.453515 11.359 -4.76837e-07 10.8 -4.76837e-07C10.241 -4.76837e-07 9.7875 0.453515 9.7875 1.0125ZM1.6875 5.4C1.6875 4.84169 2.14169 4.3875 2.7 4.3875C3.25822 4.3875 3.7125 4.84169 3.7125 5.4C3.7125 5.95822 3.25822 6.4125 2.7 6.4125C2.14169 6.4125 1.6875 5.95822 1.6875 5.4ZM1.6875 21.6C1.6875 21.0417 2.14169 20.5875 2.7 20.5875C3.25822 20.5875 3.7125 21.0417 3.7125 21.6C3.7125 22.1582 3.25822 22.6125 2.7 22.6125C2.14169 22.6125 1.6875 22.1582 1.6875 21.6ZM19.9125 13.5C19.9125 14.0582 19.4582 14.5125 18.9 14.5125C18.3417 14.5125 17.8875 14.0582 17.8875 13.5C17.8875 12.9417 18.3417 12.4875 18.9 12.4875C19.4582 12.4875 19.9125 12.9417 19.9125 13.5Z" fill="#D0D0D0"/>
</svg>
