<svg width="27" height="27" viewBox="0 0 27 27" fill="none" xmlns="http://www.w3.org/2000/svg">
<path d="M15.1664 6.3H11.8336C9.77518 6.3 8.1 7.97434 8.1 10.0327V10.575C8.1 11.0725 8.50252 11.475 9 11.475C9.49747 11.475 9.9 11.0725 9.9 10.575V10.0327C9.9 8.96659 10.7666 8.1 11.8336 8.1H15.1664C16.2334 8.1 17.1 8.96659 17.1 10.0327C17.1 10.735 16.7186 11.3827 16.1403 11.7044L12.7406 13.4042C12.099 13.7619 11.7 14.4395 11.7 15.1743V16.2C11.7 16.6975 12.1025 17.1 12.6 17.1C13.0975 17.1 13.5 16.6975 13.5 16.2V15.1743C13.5 15.0925 13.5439 15.017 13.5809 14.9959L16.9787 13.2961C18.1635 12.6395 18.9 11.3889 18.9 10.0327C18.9 7.97434 17.2248 6.3 15.1664 6.3ZM12.6 18.45C11.8545 18.45 11.25 19.0545 11.25 19.8C11.25 20.5455 11.8545 21.15 12.6 21.15C13.3455 21.15 13.95 20.5455 13.95 19.8C13.95 19.0545 13.3455 18.45 12.6 18.45ZM13.5 0C6.04412 0 0 6.04412 0 13.5C0 20.9559 6.04412 27 13.5 27C20.9559 27 27 20.9559 27 13.5C27 6.04412 20.9559 0 13.5 0ZM13.5 25.2C7.04863 25.2 1.8 19.9514 1.8 13.5C1.8 7.04863 7.04863 1.8 13.5 1.8C19.9514 1.8 25.2 7.04863 25.2 13.5C25.2 19.9514 19.9514 25.2 13.5 25.2Z" fill="#1F1F1F"/>
</svg>
