<svg width="27" height="27" viewBox="0 0 27 27" fill="none" xmlns="http://www.w3.org/2000/svg">
<path d="M23.625 0H3.375C1.51611 0 0 1.51611 0 3.375V18.5626C0 20.4215 1.51611 21.9376 3.375 21.9376H8.4375V26.3673C8.4375 26.8861 9.0189 27.1835 9.44604 26.8749L16.0312 21.9376H23.625C25.4839 21.9376 27 20.4215 27 18.5626V3.375C27 1.51611 25.4839 0 23.625 0ZM25.3125 18.5626C25.3125 19.4907 24.5531 20.2501 23.625 20.2501H16.0272C15.6619 20.2501 15.3064 20.3687 15.0142 20.5879L10.125 24.2579V21.0939C10.125 20.6278 9.74721 20.2501 9.28125 20.2501H3.375C2.44687 20.2501 1.6875 19.4907 1.6875 18.5626V3.375C1.6875 2.44687 2.44687 1.6875 3.375 1.6875H23.625C24.5531 1.6875 25.3125 2.44687 25.3125 3.375V18.5626ZM13.5 13.5C13.9664 13.5 14.3438 13.1226 14.3438 12.6562V5.0625C14.3438 4.59612 13.9664 4.21875 13.5 4.21875C13.0336 4.21875 12.6562 4.59612 12.6562 5.0625V12.6562C12.6562 13.1226 13.0336 13.5 13.5 13.5ZM13.5 14.7656C12.8011 14.7656 12.2344 15.3322 12.2344 16.0312C12.2344 16.7302 12.8011 17.2969 13.5 17.2969C14.1989 17.2969 14.7656 16.7302 14.7656 16.0312C14.7656 15.3322 14.1989 14.7656 13.5 14.7656Z" fill="#D0D0D0"/>
</svg>
