<svg width="380" height="337" viewBox="0 0 380 337" fill="none" xmlns="http://www.w3.org/2000/svg">
<path d="M379.164 168.411C379.167 166.916 378.85 165.438 378.236 164.075C377.621 162.712 376.722 161.497 375.599 160.51L196.658 2.62094C194.733 0.931571 192.26 0 189.699 0C187.138 0 184.664 0.931571 182.74 2.62094L3.79877 160.51C2.1919 161.925 1.05492 163.796 0.539679 165.874C0.024434 167.952 0.155449 170.138 0.915227 172.139C1.675 174.141 3.02738 175.863 4.79173 177.076C6.55608 178.288 8.64842 178.934 10.7893 178.926C13.343 178.933 15.8096 177.997 17.7167 176.299L42.3342 154.577V305.242C42.3433 313.614 45.6731 321.641 51.5932 327.561C57.5132 333.481 65.5399 336.81 73.912 336.819H126.542C134.914 336.81 142.941 333.481 148.861 327.561C154.781 321.641 158.11 313.614 158.12 305.242V231.56H221.275V305.242C221.284 313.614 224.614 321.641 230.534 327.561C236.454 333.481 244.481 336.81 252.853 336.819H305.483C313.855 336.81 321.882 333.481 327.802 327.561C333.722 321.641 337.051 313.614 337.061 305.242V154.577L361.681 176.299C363.2 177.637 365.072 178.509 367.074 178.809C369.076 179.11 371.122 178.828 372.967 177.995C374.812 177.163 376.378 175.816 377.477 174.116C378.577 172.416 379.162 170.435 379.164 168.411ZM316.009 136.827V305.242C316.005 308.032 314.895 310.707 312.922 312.681C310.948 314.654 308.273 315.764 305.483 315.768H252.853C250.062 315.764 247.387 314.654 245.414 312.681C243.441 310.707 242.331 308.032 242.327 305.242V231.56C242.321 225.979 240.102 220.627 236.155 216.68C232.208 212.734 226.857 210.514 221.275 210.508H158.12C152.538 210.514 147.187 212.734 143.24 216.68C139.293 220.627 137.073 225.979 137.068 231.56V305.242C137.064 308.032 135.954 310.707 133.981 312.681C132.007 314.654 129.332 315.764 126.542 315.768H73.912C71.1215 315.764 68.4463 314.654 66.4731 312.681C64.4999 310.707 63.3898 308.032 63.3861 305.242V136.827C63.3861 136.579 63.2618 136.372 63.2447 136.128L189.697 24.557L316.151 136.128C316.135 136.372 316.009 136.579 316.009 136.827Z" fill="#1F1F1F"/>
</svg>
