<svg width="27" height="24" viewBox="0 0 27 24" fill="none" xmlns="http://www.w3.org/2000/svg">
<path d="M27 11.9997C27.0002 11.8932 26.9776 11.7879 26.9338 11.6908C26.89 11.5937 26.8259 11.5071 26.7459 11.4367L13.9959 0.186749C13.8588 0.0663768 13.6826 0 13.5001 0C13.3176 0 13.1414 0.0663768 13.0042 0.186749L0.25425 11.4367C0.139757 11.5375 0.0587446 11.6709 0.0220321 11.8189C-0.0146805 11.967 -0.00534536 12.1227 0.0487907 12.2654C0.102927 12.408 0.199287 12.5307 0.325001 12.6171C0.450716 12.7035 0.5998 12.7495 0.752344 12.7489C0.934305 12.7494 1.11005 12.6828 1.24594 12.5617L3 11.014V21.7492C3.00065 22.3458 3.23791 22.9177 3.65972 23.3395C4.08154 23.7613 4.65346 23.9986 5.25 23.9992H9C9.59654 23.9986 10.1685 23.7613 10.5903 23.3395C11.0121 22.9177 11.2494 22.3458 11.25 21.7492V16.4992H15.75V21.7492C15.7506 22.3458 15.9879 22.9177 16.4097 23.3395C16.8315 23.7613 17.4035 23.9986 18 23.9992H21.75C22.3465 23.9986 22.9185 23.7613 23.3403 23.3395C23.7621 22.9177 23.9994 22.3458 24 21.7492V11.014L25.7542 12.5617C25.8625 12.6571 25.9959 12.7192 26.1385 12.7406C26.2812 12.7621 26.427 12.7419 26.5584 12.6826C26.6899 12.6233 26.8015 12.5273 26.8798 12.4062C26.9581 12.2851 26.9999 12.144 27 11.9997ZM22.5 9.74925V21.7492C22.4997 21.9481 22.4206 22.1387 22.28 22.2793C22.1394 22.4199 21.9488 22.499 21.75 22.4992H18C17.8012 22.499 17.6106 22.4199 17.47 22.2793C17.3294 22.1387 17.2503 21.9481 17.25 21.7492V16.4992C17.2496 16.1015 17.0914 15.7202 16.8102 15.439C16.529 15.1578 16.1477 14.9996 15.75 14.9992H11.25C10.8523 14.9996 10.471 15.1578 10.1898 15.439C9.90856 15.7202 9.7504 16.1015 9.75 16.4992V21.7492C9.74974 21.9481 9.67064 22.1387 9.53004 22.2793C9.38945 22.4199 9.19883 22.499 9 22.4992H5.25C5.05117 22.499 4.86055 22.4199 4.71996 22.2793C4.57936 22.1387 4.50026 21.9481 4.5 21.7492V9.74925C4.5 9.73158 4.49114 9.71686 4.48992 9.69947L13.5 1.74975L22.5102 9.69947C22.509 9.71686 22.5 9.73158 22.5 9.74925Z" fill="#D0D0D0"/>
</svg>
