<svg width="14" height="14" viewBox="0 0 14 14" fill="none" xmlns="http://www.w3.org/2000/svg">
<path d="M10.6985 8.49123C10.4804 8.49123 10.3035 8.66811 10.3035 8.88628V11.6516C10.3035 12.088 9.94975 12.4417 9.51337 12.4417H2.40247C1.96613 12.4417 1.61237 12.088 1.61237 11.6516V4.54073C1.61237 4.10434 1.96613 3.75063 2.40247 3.75063H5.16782C5.38603 3.75063 5.56287 3.57374 5.56287 3.35558C5.56287 3.13741 5.38603 2.96053 5.16782 2.96053H2.40247C1.52975 2.96053 0.822266 3.66801 0.822266 4.54073V11.6516C0.822266 12.5243 1.52975 13.2318 2.40247 13.2318H9.51337C10.3861 13.2318 11.0936 12.5243 11.0936 11.6516V8.88628C11.0936 8.66811 10.9167 8.49123 10.6985 8.49123ZM12.6738 0.590225H9.90918C9.58821 0.590225 9.30197 0.781973 9.17928 1.07826C9.05659 1.37455 9.12373 1.71249 9.35056 1.93895L10.4535 3.04198L5.28357 8.21193C5.12925 8.36624 5.12925 8.61624 5.28357 8.77053C5.3607 8.84771 5.46178 8.88628 5.56287 8.88628C5.66395 8.88628 5.76503 8.84771 5.84217 8.77053L11.012 3.6007L12.1151 4.70391C12.2671 4.85514 12.4678 4.93538 12.673 4.93538C12.7749 4.93538 12.8782 4.91533 12.9762 4.87482C13.2725 4.75176 13.4639 4.46549 13.4639 4.14491V1.38033C13.4639 0.944758 13.1097 0.590225 12.6738 0.590225ZM12.6738 4.14491L9.90533 1.38072C9.90533 1.38072 9.90689 1.38033 9.90918 1.38033H12.6738V4.14491Z" fill="white"/>
</svg>
