<svg width="219" height="48" viewBox="0 0 219 48" fill="none" xmlns="http://www.w3.org/2000/svg">
<path d="M34.3558 35.2755C33.6442 35.2755 33.0817 35.0803 32.6685 34.6901C32.2783 34.2769 32.0831 33.6915 32.0831 32.9339V13.065C32.0831 12.3074 32.2783 11.7335 32.6685 11.3432C33.0817 10.93 33.6671 10.7234 34.4247 10.7234H46.4425C47.0393 10.7234 47.487 10.8726 47.7854 11.1711C48.0839 11.4695 48.2331 11.8942 48.2331 12.4452C48.2331 13.0191 48.0839 13.4667 47.7854 13.7881C47.487 14.0865 47.0393 14.2358 46.4425 14.2358H36.4908V21.0883H45.7193C46.2933 21.0883 46.7294 21.2375 47.0279 21.536C47.3493 21.8344 47.51 22.2591 47.51 22.8101C47.51 23.384 47.3493 23.8316 47.0279 24.153C46.7294 24.4514 46.2933 24.6007 45.7193 24.6007H36.4908V32.9339C36.4908 34.495 35.7791 35.2755 34.3558 35.2755ZM52.8735 35.2755C52.1618 35.2755 51.6108 35.0918 51.2206 34.7245C50.8533 34.3343 50.6696 33.7833 50.6696 33.0716V20.0553C50.6696 19.3436 50.8533 18.8041 51.2206 18.4368C51.5879 18.0695 52.1044 17.8859 52.7701 17.8859C53.4359 17.8859 53.9524 18.0695 54.3197 18.4368C54.687 18.8041 54.8707 19.3436 54.8707 20.0553V22.2247H54.5263C54.8477 20.8473 55.479 19.8027 56.4202 19.0911C57.3615 18.3794 58.6126 17.9547 60.1736 17.817C60.6557 17.7711 61.0345 17.8973 61.31 18.1958C61.6084 18.4713 61.7806 18.9074 61.8265 19.5043C61.8724 20.0782 61.7347 20.5488 61.4133 20.9161C61.1149 21.2605 60.6557 21.4671 60.0359 21.536L59.2783 21.6048C57.878 21.7426 56.822 22.1787 56.1103 22.9134C55.3987 23.625 55.0429 24.6351 55.0429 25.9436V33.0716C55.0429 33.7833 54.8592 34.3343 54.4919 34.7245C54.1246 35.0918 53.5851 35.2755 52.8735 35.2755ZM72.1842 35.3443C70.2788 35.3443 68.6374 34.9885 67.26 34.2769C65.8826 33.5652 64.8151 32.5551 64.0575 31.2466C63.3229 29.9381 62.9556 28.3885 62.9556 26.5979C62.9556 24.8532 63.3114 23.3266 64.0231 22.0181C64.7577 20.7095 65.7563 19.688 67.0189 18.9533C68.3045 18.1958 69.7622 17.817 71.3922 17.817C72.5859 17.817 73.6534 18.0121 74.5946 18.4024C75.5588 18.7926 76.3737 19.3551 77.0395 20.0897C77.7282 20.8243 78.2447 21.7196 78.589 22.7756C78.9563 23.8087 79.14 24.9794 79.14 26.288C79.14 26.7012 78.9908 27.0226 78.6923 27.2522C78.4169 27.4588 78.0151 27.5621 77.4871 27.5621H66.4335V25.0828H76.1097L75.5588 25.5993C75.5588 24.5433 75.3981 23.6594 75.0767 22.9478C74.7783 22.2361 74.3306 21.6967 73.7337 21.3294C73.1598 20.9391 72.4367 20.744 71.5643 20.744C70.6002 20.744 69.7737 20.9735 69.085 21.4327C68.4193 21.8688 67.9028 22.5001 67.5354 23.3266C67.1911 24.1301 67.0189 25.0942 67.0189 26.2191V26.4601C67.0189 28.3426 67.4551 29.7544 68.3275 30.6956C69.2228 31.6139 70.5313 32.073 72.253 32.073C72.8499 32.073 73.5156 32.0042 74.2503 31.8664C75.0078 31.7057 75.7195 31.4417 76.3852 31.0744C76.8673 30.7989 77.292 30.6842 77.6593 30.7301C78.0266 30.753 78.3136 30.8793 78.5202 31.1089C78.7497 31.3384 78.8875 31.6254 78.9334 31.9697C78.9793 32.2911 78.9104 32.624 78.7268 32.9683C78.5661 33.3127 78.2791 33.6111 77.8659 33.8636C77.0624 34.3687 76.1327 34.7475 75.0767 35C74.0436 35.2296 73.0795 35.3443 72.1842 35.3443ZM90.8476 35.3443C88.9422 35.3443 87.3008 34.9885 85.9234 34.2769C84.546 33.5652 83.4785 32.5551 82.721 31.2466C81.9864 29.9381 81.619 28.3885 81.619 26.5979C81.619 24.8532 81.9749 23.3266 82.6865 22.0181C83.4211 20.7095 84.4197 19.688 85.6824 18.9533C86.9679 18.1958 88.4257 17.817 90.0556 17.817C91.2493 17.817 92.3168 18.0121 93.258 18.4024C94.2222 18.7926 95.0372 19.3551 95.7029 20.0897C96.3916 20.8243 96.9081 21.7196 97.2525 22.7756C97.6198 23.8087 97.8034 24.9794 97.8034 26.288C97.8034 26.7012 97.6542 27.0226 97.3558 27.2522C97.0803 27.4588 96.6786 27.5621 96.1506 27.5621H85.097V25.0828H94.7732L94.2222 25.5993C94.2222 24.5433 94.0615 23.6594 93.7401 22.9478C93.4417 22.2361 92.994 21.6967 92.3972 21.3294C91.8232 20.9391 91.1001 20.744 90.2278 20.744C89.2636 20.744 88.4372 20.9735 87.7485 21.4327C87.0827 21.8688 86.5662 22.5001 86.1989 23.3266C85.8545 24.1301 85.6824 25.0942 85.6824 26.2191V26.4601C85.6824 28.3426 86.1185 29.7544 86.9909 30.6956C87.8862 31.6139 89.1947 32.073 90.9165 32.073C91.5133 32.073 92.1791 32.0042 92.9137 31.8664C93.6713 31.7057 94.3829 31.4417 95.0486 31.0744C95.5307 30.7989 95.9554 30.6842 96.3227 30.7301C96.69 30.753 96.977 30.8793 97.1836 31.1089C97.4132 31.3384 97.5509 31.6254 97.5968 31.9697C97.6427 32.2911 97.5739 32.624 97.3902 32.9683C97.2295 33.3127 96.9426 33.6111 96.5293 33.8636C95.7259 34.3687 94.7961 34.7475 93.7401 35C92.7071 35.2296 91.7429 35.3443 90.8476 35.3443ZM106.963 35.3443C105.057 35.3443 103.623 34.8049 102.658 33.7259C101.694 32.624 101.212 31.017 101.212 28.905V12.6173C101.212 11.9057 101.396 11.3662 101.763 10.9989C102.13 10.6316 102.658 10.4479 103.347 10.4479C104.036 10.4479 104.564 10.6316 104.931 10.9989C105.321 11.3662 105.517 11.9057 105.517 12.6173V28.6984C105.517 29.7544 105.735 30.5349 106.171 31.04C106.63 31.545 107.273 31.7976 108.099 31.7976C108.283 31.7976 108.455 31.7976 108.616 31.7976C108.776 31.7746 108.937 31.7516 109.098 31.7287C109.419 31.6828 109.637 31.7746 109.752 32.0042C109.867 32.2108 109.924 32.6469 109.924 33.3127C109.924 33.8866 109.809 34.3343 109.58 34.6557C109.35 34.977 108.972 35.1722 108.444 35.241C108.214 35.264 107.973 35.287 107.72 35.3099C107.468 35.3329 107.215 35.3443 106.963 35.3443ZM117.753 35.3443C116.536 35.3443 115.445 35.1148 114.481 34.6557C113.54 34.1736 112.794 33.5308 112.243 32.7273C111.715 31.9238 111.451 31.017 111.451 30.0069C111.451 28.7673 111.772 27.7916 112.415 27.08C113.058 26.3454 114.102 25.8174 115.549 25.496C116.995 25.1746 118.935 25.0139 121.368 25.0139H123.09V27.4932H121.403C119.979 27.4932 118.843 27.5621 117.994 27.6998C117.144 27.8375 116.536 28.0786 116.169 28.4229C115.824 28.7443 115.652 29.2035 115.652 29.8003C115.652 30.5579 115.916 31.1777 116.444 31.6598C116.972 32.1419 117.707 32.3829 118.648 32.3829C119.405 32.3829 120.071 32.2108 120.645 31.8664C121.242 31.4991 121.713 31.0056 122.057 30.3857C122.401 29.7659 122.573 29.0542 122.573 28.2508V24.2908C122.573 23.1429 122.321 22.3165 121.816 21.8114C121.311 21.3064 120.461 21.0539 119.268 21.0539C118.602 21.0539 117.879 21.1342 117.098 21.2949C116.341 21.4556 115.537 21.7311 114.688 22.1214C114.252 22.328 113.861 22.3854 113.517 22.2935C113.196 22.2017 112.943 22.018 112.759 21.7426C112.576 21.4441 112.484 21.1227 112.484 20.7784C112.484 20.434 112.576 20.1012 112.759 19.7798C112.943 19.4354 113.253 19.1829 113.689 19.0222C114.745 18.586 115.755 18.2761 116.719 18.0925C117.707 17.9088 118.602 17.817 119.405 17.817C121.058 17.817 122.413 18.0695 123.469 18.5746C124.548 19.0796 125.351 19.8487 125.879 20.8817C126.407 21.8918 126.671 23.2003 126.671 24.8073V33.0716C126.671 33.7833 126.499 34.3343 126.155 34.7245C125.81 35.0918 125.317 35.2755 124.674 35.2755C124.031 35.2755 123.526 35.0918 123.159 34.7245C122.814 34.3343 122.642 33.7833 122.642 33.0716V31.4188H122.918C122.757 32.2223 122.436 32.9224 121.954 33.5193C121.494 34.0932 120.909 34.5409 120.197 34.8623C119.486 35.1837 118.671 35.3443 117.753 35.3443ZM133.175 35.2755C132.486 35.2755 131.958 35.0918 131.591 34.7245C131.224 34.3343 131.04 33.7833 131.04 33.0716V20.0553C131.04 19.3436 131.224 18.8041 131.591 18.4368C131.958 18.0695 132.475 17.8859 133.141 17.8859C133.806 17.8859 134.323 18.0695 134.69 18.4368C135.057 18.8041 135.241 19.3436 135.241 20.0553V22.3968L134.862 21.536C135.367 20.3193 136.148 19.401 137.204 18.7812C138.283 18.1384 139.5 17.817 140.854 17.817C142.208 17.817 143.322 18.0695 144.194 18.5746C145.067 19.0796 145.721 19.8487 146.157 20.8817C146.593 21.8918 146.811 23.1774 146.811 24.7384V33.0716C146.811 33.7833 146.628 34.3343 146.26 34.7245C145.893 35.0918 145.365 35.2755 144.676 35.2755C143.988 35.2755 143.448 35.0918 143.058 34.7245C142.691 34.3343 142.507 33.7833 142.507 33.0716V24.945C142.507 23.6365 142.254 22.6838 141.749 22.0869C141.267 21.49 140.51 21.1916 139.477 21.1916C138.214 21.1916 137.204 21.5934 136.446 22.3968C135.712 23.1774 135.344 24.2219 135.344 25.5304V33.0716C135.344 34.5409 134.621 35.2755 133.175 35.2755ZM158.965 35.3443C157.198 35.3443 155.66 34.9885 154.351 34.2769C153.043 33.5423 152.033 32.5092 151.321 31.1777C150.609 29.8462 150.253 28.2852 150.253 26.4946C150.253 25.1401 150.449 23.9349 150.839 22.8789C151.252 21.8 151.837 20.8932 152.595 20.1586C153.353 19.401 154.271 18.8271 155.35 18.4368C156.429 18.0236 157.634 17.817 158.965 17.817C159.723 17.817 160.538 17.9203 161.41 18.1269C162.306 18.3335 163.144 18.6779 163.924 19.16C164.291 19.3895 164.532 19.665 164.647 19.9864C164.762 20.3078 164.785 20.6407 164.716 20.985C164.647 21.3064 164.498 21.5934 164.268 21.8459C164.062 22.0754 163.798 22.2247 163.476 22.2935C163.155 22.3394 162.799 22.2591 162.409 22.0525C161.904 21.754 161.387 21.536 160.859 21.3982C160.331 21.2375 159.826 21.1572 159.344 21.1572C158.587 21.1572 157.921 21.2834 157.347 21.536C156.773 21.7655 156.28 22.1099 155.866 22.569C155.476 23.0052 155.178 23.5561 154.971 24.2219C154.764 24.8876 154.661 25.6567 154.661 26.529C154.661 28.2278 155.063 29.5708 155.866 30.5579C156.693 31.5221 157.852 32.0042 159.344 32.0042C159.826 32.0042 160.32 31.9353 160.825 31.7976C161.353 31.6598 161.881 31.4417 162.409 31.1433C162.799 30.9367 163.144 30.8678 163.442 30.9367C163.763 31.0056 164.027 31.1663 164.234 31.4188C164.441 31.6483 164.567 31.9353 164.613 32.2796C164.659 32.601 164.613 32.9224 164.475 33.2438C164.36 33.5652 164.131 33.8292 163.786 34.0358C163.029 34.495 162.225 34.8278 161.376 35.0344C160.526 35.241 159.723 35.3443 158.965 35.3443ZM175.388 35.3443C173.483 35.3443 171.841 34.9885 170.464 34.2769C169.086 33.5652 168.019 32.5551 167.261 31.2466C166.527 29.9381 166.159 28.3885 166.159 26.5979C166.159 24.8532 166.515 23.3266 167.227 22.0181C167.961 20.7095 168.96 19.688 170.223 18.9533C171.508 18.1958 172.966 17.817 174.596 17.817C175.79 17.817 176.857 18.0121 177.798 18.4024C178.763 18.7926 179.577 19.3551 180.243 20.0897C180.932 20.8243 181.448 21.7196 181.793 22.7756C182.16 23.8087 182.344 24.9794 182.344 26.288C182.344 26.7012 182.195 27.0226 181.896 27.2522C181.621 27.4588 181.219 27.5621 180.691 27.5621H169.637V25.0828H179.313L178.763 25.5993C178.763 24.5433 178.602 23.6594 178.28 22.9478C177.982 22.2361 177.534 21.6967 176.937 21.3294C176.364 20.9391 175.64 20.744 174.768 20.744C173.804 20.744 172.977 20.9735 172.289 21.4327C171.623 21.8688 171.107 22.5001 170.739 23.3266C170.395 24.1301 170.223 25.0942 170.223 26.2191V26.4601C170.223 28.3426 170.659 29.7544 171.531 30.6956C172.427 31.6139 173.735 32.073 175.457 32.073C176.054 32.073 176.719 32.0042 177.454 31.8664C178.212 31.7057 178.923 31.4417 179.589 31.0744C180.071 30.7989 180.496 30.6842 180.863 30.7301C181.23 30.753 181.517 30.8793 181.724 31.1089C181.953 31.3384 182.091 31.6254 182.137 31.9697C182.183 32.2911 182.114 32.624 181.931 32.9683C181.77 33.3127 181.483 33.6111 181.07 33.8636C180.266 34.3687 179.336 34.7475 178.28 35C177.247 35.2296 176.283 35.3443 175.388 35.3443ZM187.956 35.2755C187.245 35.2755 186.694 35.0918 186.303 34.7245C185.936 34.3343 185.753 33.7833 185.753 33.0716V20.0553C185.753 19.3436 185.936 18.8041 186.303 18.4368C186.671 18.0695 187.187 17.8859 187.853 17.8859C188.519 17.8859 189.035 18.0695 189.403 18.4368C189.77 18.8041 189.954 19.3436 189.954 20.0553V22.2247H189.609C189.931 20.8473 190.562 19.8027 191.503 19.0911C192.444 18.3794 193.696 17.9547 195.257 17.817C195.739 17.7711 196.117 17.8973 196.393 18.1958C196.691 18.4713 196.864 18.9074 196.909 19.5043C196.955 20.0782 196.818 20.5488 196.496 20.9161C196.198 21.2605 195.739 21.4671 195.119 21.536L194.361 21.6048C192.961 21.7426 191.905 22.1787 191.193 22.9134C190.482 23.625 190.126 24.6351 190.126 25.9436V33.0716C190.126 33.7833 189.942 34.3343 189.575 34.7245C189.208 35.0918 188.668 35.2755 187.956 35.2755ZM205.233 35.3443C204.246 35.3443 203.201 35.241 202.099 35.0344C200.998 34.8278 200.01 34.472 199.138 33.967C198.771 33.7374 198.507 33.4734 198.346 33.175C198.208 32.8536 198.151 32.5436 198.174 32.2452C198.22 31.9238 198.335 31.6483 198.518 31.4188C198.725 31.1892 198.977 31.04 199.276 30.9711C199.597 30.9022 199.942 30.9596 200.309 31.1433C201.227 31.5795 202.088 31.8894 202.891 32.073C203.695 32.2337 204.487 32.3141 205.267 32.3141C206.369 32.3141 207.184 32.1304 207.712 31.7631C208.263 31.3729 208.539 30.8678 208.539 30.248C208.539 29.72 208.355 29.3182 207.988 29.0428C207.643 28.7443 207.115 28.5262 206.404 28.3885L202.96 27.7342C201.537 27.4588 200.447 26.9422 199.689 26.1847C198.954 25.4041 198.587 24.4055 198.587 23.1888C198.587 22.0869 198.886 21.1342 199.482 20.3307C200.102 19.5273 200.952 18.9074 202.031 18.4713C203.11 18.0351 204.349 17.817 205.75 17.817C206.76 17.817 207.701 17.9318 208.573 18.1613C209.468 18.368 210.329 18.7008 211.156 19.16C211.5 19.3436 211.73 19.5847 211.844 19.8831C211.982 20.1815 212.017 20.4914 211.948 20.8128C211.879 21.1113 211.741 21.3867 211.535 21.6393C211.328 21.8688 211.064 22.018 210.743 22.0869C210.444 22.1328 210.1 22.064 209.71 21.8803C208.998 21.513 208.309 21.249 207.643 21.0883C207.001 20.9276 206.381 20.8473 205.784 20.8473C204.659 20.8473 203.821 21.0424 203.27 21.4327C202.742 21.8229 202.478 22.3394 202.478 22.9822C202.478 23.4643 202.639 23.8661 202.96 24.1874C203.282 24.5088 203.775 24.7269 204.441 24.8417L207.884 25.496C209.377 25.7715 210.502 26.2765 211.259 27.0111C212.04 27.7457 212.43 28.7329 212.43 29.9725C212.43 31.6483 211.776 32.9683 210.467 33.9325C209.159 34.8737 207.414 35.3443 205.233 35.3443Z" fill="#1F1F1F"/>
<circle cx="20.0962" cy="15.0726" r="5.02393" fill="#1F1F1F"/>
<circle cx="5.02393" cy="15.0726" r="5.02393" fill="#1F1F1F"/>
<circle cx="20.0962" cy="30.1427" r="5.02393" fill="#1F1F1F"/>
<circle cx="5.02393" cy="30.1427" r="5.02393" fill="#1F1F1F"/>
</svg>
