<svg width="27" height="26" viewBox="0 0 27 26" fill="none" xmlns="http://www.w3.org/2000/svg">
<path d="M23.625 5.0625H20.25V2.53125C20.25 1.13542 19.1146 0 17.7188 0H9.28125C7.88542 0 6.75 1.13542 6.75 2.53125V5.0625H3.375C1.51105 5.0625 0 6.57355 0 8.4375V21.9375C0 23.8014 1.51105 25.3125 3.375 25.3125H23.625C25.4891 25.3125 27 23.8014 27 21.9375V8.4375C27 6.57355 25.4891 5.0625 23.625 5.0625ZM8.4375 2.53125C8.4375 2.06571 8.81571 1.6875 9.28125 1.6875H17.7188C18.1843 1.6875 18.5625 2.06571 18.5625 2.53125V5.0625H8.4375V2.53125ZM25.3125 21.9375C25.3125 22.868 24.5555 23.625 23.625 23.625H3.375C2.4445 23.625 1.6875 22.868 1.6875 21.9375V15.1875H9.28125V18.5625C9.28125 19.0289 9.65862 19.4062 10.125 19.4062H16.875C17.3414 19.4062 17.7188 19.0289 17.7188 18.5625V15.1875H25.3125V21.9375ZM10.9688 17.7187V15.1875H16.0312V17.7187H10.9688ZM25.3125 13.5H1.6875V8.4375C1.6875 7.507 2.4445 6.75 3.375 6.75H23.625C24.5555 6.75 25.3125 7.507 25.3125 8.4375V13.5Z" fill="#1F1F1F"/>
</svg>
