<svg width="27" height="26" viewBox="0 0 27 26" fill="none" xmlns="http://www.w3.org/2000/svg">
<path d="M26.1926 14.2941H16.3352C15.6277 14.2941 15.2734 15.1495 15.7736 15.6497L22.2595 22.1361C22.4878 22.3645 22.9787 22.5263 23.3637 22.1733C25.2802 20.3621 26.6014 17.9247 26.9924 15.1832C27.0597 14.7115 26.6691 14.2941 26.1926 14.2941ZM22.824 20.4548L18.252 15.8824H25.2434C24.8402 17.5761 24.0027 19.1581 22.824 20.4548ZM11.1177 14.2941V2.51884C11.1177 2.07836 10.7642 1.71232 10.3361 1.71232C10.3051 1.71232 10.2679 1.71232 10.2307 1.71852C4.31861 2.55607 -0.20385 7.72404 0.00708757 13.9157C0.22418 20.2252 5.61515 25.4118 11.918 25.4118C11.9677 25.4118 12.0111 25.4118 12.0607 25.4118C14.567 25.3808 16.8747 24.5742 18.7731 23.228C19.1701 22.9488 19.1949 22.3718 18.8537 22.0306L11.1177 14.2941ZM12.0421 23.8236C6.29616 23.8236 1.77569 19.0998 1.59523 13.8599C1.42772 8.89041 4.78386 4.57859 9.52966 3.46806V14.2939C9.52966 14.7151 9.69697 15.1191 9.99482 15.417L17.036 22.4587C15.5161 23.3334 13.8102 23.7987 12.0421 23.8236ZM25.4104 11.0757C24.9989 5.14683 20.2603 0.409368 14.3312 0C13.8046 0 13.5 0.406589 13.5 0.806527V11.1177C13.5 11.5563 13.8555 11.9118 14.2941 11.9118H24.6045C25.0596 11.9118 25.442 11.5298 25.4104 11.0757ZM15.0881 10.3235V1.6813C19.5175 2.36995 23.0411 5.89385 23.7297 10.3235H15.0881Z" fill="#D0D0D0"/>
</svg>
