<svg width="27" height="26" viewBox="0 0 27 26" fill="none" xmlns="http://www.w3.org/2000/svg">
<path d="M26.1926 14.3723H16.3352C15.6277 14.3723 15.2734 15.2276 15.7736 15.7279L22.2595 22.2142C22.4878 22.4426 22.9787 22.6044 23.3637 22.2514C25.2802 20.4403 26.6014 18.0028 26.9924 15.2614C27.0597 14.7897 26.6691 14.3723 26.1926 14.3723ZM22.824 20.5329L18.252 15.9605H25.2434C24.8402 17.6542 24.0027 19.2362 22.824 20.5329ZM11.1177 14.3723V2.59697C11.1177 2.15648 10.7642 1.79044 10.3361 1.79044C10.3051 1.79044 10.2679 1.79044 10.2307 1.79665C4.31861 2.63419 -0.20385 7.80217 0.00708757 13.9938C0.22418 20.3033 5.61515 25.4899 11.918 25.4899C11.9677 25.4899 12.0111 25.4899 12.0607 25.4899C14.567 25.4589 16.8747 24.6524 18.7731 23.3061C19.1701 23.0269 19.1949 22.4499 18.8537 22.1087L11.1177 14.3723ZM12.0421 23.9017C6.29616 23.9017 1.77569 19.178 1.59523 13.938C1.42772 8.96853 4.78386 4.65671 9.52966 3.54619V14.372C9.52966 14.7932 9.69697 15.1972 9.99482 15.4951L17.036 22.5368C15.5161 23.4116 13.8102 23.8769 12.0421 23.9017ZM25.4104 11.1538C24.9989 5.22496 20.2603 0.487493 14.3312 0.078125C13.8046 0.078125 13.5 0.484714 13.5 0.884652V11.1958C13.5 11.6344 13.8555 11.9899 14.2941 11.9899H24.6045C25.0596 11.9899 25.442 11.6079 25.4104 11.1538ZM15.0881 10.4017V1.75942C19.5175 2.44807 23.0411 5.97197 23.7297 10.4017H15.0881Z" fill="#1F1F1F"/>
</svg>
