<svg width="30" height="27" viewBox="0 0 30 27" fill="none" xmlns="http://www.w3.org/2000/svg">
<path d="M28.8629 11.402L2.61304 0.151992C2.37521 0.0496876 2.1246 0 1.87611 0C1.37085 0 0.87433 0.205078 0.51099 0.588692C-0.0291862 1.16086 -0.153698 2.00959 0.197865 2.71359L5.62499 13.125L0.197865 23.5364C-0.153698 24.2404 -0.0291862 25.0891 0.51099 25.6613C0.873509 26.0449 1.36974 26.25 1.87511 26.25C2.12413 26.25 2.37497 26.2006 2.61304 26.098L28.8629 14.848C29.5532 14.5532 30 13.8748 30 13.125C30 12.3752 29.5532 11.6968 28.8629 11.402ZM3.92109 3.77244L22.4622 11.7188H8.06361L3.92109 3.77244ZM8.06361 14.5313H22.4622L3.92167 22.4773L8.06361 14.5313Z" fill="#D0D0D0"/>
</svg>
