<svg width="27" height="27" viewBox="0 0 27 27" fill="none" xmlns="http://www.w3.org/2000/svg">
<path d="M11.8685 19.9396C11.5866 19.4503 10.9369 19.3342 10.5375 19.7334L5.7086 24.5615C4.91717 25.3525 3.65724 25.5523 2.72716 24.9298C1.47667 24.0926 1.35422 22.3583 2.35976 21.3455L9.46883 14.2381C9.798 13.9091 9.79726 13.3752 9.46714 13.0468C9.1384 12.7201 8.60694 12.7208 8.27909 13.0485L1.17334 20.1528C-0.388916 21.7146 -0.388916 24.2585 1.17334 25.8205C2.05079 26.7054 3.27881 27.123 4.54249 26.958C5.46139 26.8381 6.29702 26.3588 6.95229 25.7035L11.7268 20.9302C11.9843 20.6727 12.0601 20.2698 11.8775 19.955C11.8745 19.9497 11.8715 19.9447 11.8685 19.9396ZM13.6985 4.67522C13.9462 4.26284 14.2444 3.87661 14.5938 3.52577C15.7934 2.33286 17.3689 1.68708 19.0167 1.68708C19.3793 1.68708 19.7418 1.72004 20.1044 1.77936L16.4526 5.44361L17.1777 9.81931L21.5611 10.5444L25.2194 6.89339C25.5688 8.90347 24.936 10.9397 23.4727 12.4027C23.239 12.6365 22.9871 12.847 22.7221 13.0357C22.3121 13.3272 22.2876 13.931 22.6444 14.2856L22.6564 14.2976C22.9531 14.5926 23.4168 14.6157 23.7554 14.3701C24.0742 14.139 24.3786 13.8801 24.6658 13.589C26.6564 11.5987 27.4408 8.77163 26.7553 6.03646C26.6366 5.5359 26.2477 5.14039 25.7467 5.00196C25.2458 4.86354 24.7119 5.00196 24.3428 5.3711L20.9745 8.73867L18.641 8.34976L18.2522 6.02327L21.6205 2.64906C21.9829 2.28672 22.1279 1.753 21.9895 1.25202C21.8512 0.751254 21.4491 0.369141 20.9481 0.243897C18.2258 -0.435059 15.3979 0.342774 13.4007 2.33286C12.9646 2.77309 12.6013 3.26131 12.2941 3.7771C12.0942 4.11286 12.1333 4.53885 12.4097 4.81513C12.7857 5.19107 13.4247 5.13111 13.6985 4.67522ZM3.3749 22.7757C3.3749 23.2369 3.75722 23.6193 4.21865 23.6193C4.68007 23.6193 5.06229 23.2369 5.06229 22.7757C5.06229 22.3145 4.68007 21.9321 4.21865 21.9321C3.75722 21.9321 3.3749 22.3145 3.3749 22.7757ZM26.5048 20.5351L19.9462 13.9713C19.1222 13.1474 18.0412 12.7388 16.9602 12.7388C16.1494 12.7388 15.332 12.9694 14.6334 13.4374L10.1247 8.92983V5.06129L3.3749 0L0 3.37416L5.06229 10.1225H8.93157L13.4403 14.6301C12.3526 16.271 12.5372 18.4921 13.9808 19.9418L20.546 26.5056C20.869 26.8286 21.3041 27 21.7391 27C22.1675 27 22.6025 26.8352 22.9255 26.5056L26.5114 22.9205C27.164 22.2617 27.164 21.1941 26.5048 20.5351ZM8.43719 8.43545H5.90604L2.22792 3.53236L3.5331 2.2274L8.43719 5.90483V8.43545ZM21.7325 25.3063L15.1738 18.7425C14.6927 18.2613 14.429 17.6287 14.429 16.9566C14.429 16.2776 14.6927 15.6452 15.1738 15.1706C15.6484 14.6894 16.2812 14.426 16.9602 14.426C17.6325 14.426 18.2719 14.6894 18.7464 15.1706L25.3117 21.7278L21.7325 25.3063Z" fill="#1F1F1F"/>
</svg>
