<svg width="27" height="24" viewBox="0 0 27 24" fill="none" xmlns="http://www.w3.org/2000/svg">
<path d="M18.1406 8.4375C18.8394 8.4375 19.4062 7.87061 19.4062 7.17188V2.95312C19.4062 2.25439 18.8394 1.6875 18.1406 1.6875C17.4419 1.6875 16.875 2.25439 16.875 2.95312V7.17188C16.875 7.87061 17.4419 8.4375 18.1406 8.4375ZM23.2031 16.875C23.9019 16.875 24.4688 16.3081 24.4688 15.6094V2.95312C24.4688 2.25439 23.9019 1.6875 23.2031 1.6875C22.5044 1.6875 21.9375 2.25439 21.9375 2.95312V15.6094C21.9375 16.3081 22.5044 16.875 23.2031 16.875ZM13.0781 11.8125C13.7769 11.8125 14.3438 11.2456 14.3438 10.5469V6.32812C14.3438 5.62939 13.7769 5.0625 13.0781 5.0625C12.3794 5.0625 11.8125 5.62939 11.8125 6.32812V10.5469C11.8125 11.2456 12.3794 11.8125 13.0781 11.8125ZM8.01562 16.875C8.71436 16.875 9.28125 16.3081 9.28125 15.6094V11.3906C9.28125 10.6919 8.71436 10.125 8.01562 10.125C7.31689 10.125 6.75 10.6919 6.75 11.3906V15.6094C6.75 16.3081 7.31689 16.875 8.01562 16.875ZM25.7344 21.0938H2.53125V1.26562C2.53125 0.566895 1.96436 0 1.26562 0C0.566895 0 0 0.566895 0 1.26562V21.9375C0 22.8653 0.759691 23.625 1.6875 23.625H25.7344C26.4331 23.625 27 23.0581 27 22.3594C27 21.6606 26.4331 21.0938 25.7344 21.0938Z" fill="#1F1F1F"/>
</svg>
