<svg width="22" height="21" viewBox="0 0 22 21" fill="none" xmlns="http://www.w3.org/2000/svg">
<g filter="url(#filter0_d_8_788)">
<path d="M9.80009 3.17127C10.1494 2.09618 11.6704 2.09618 12.0197 3.17127L13.2678 7.01253C13.424 7.49332 13.8721 7.81885 14.3776 7.81885H18.4165C19.547 7.81885 20.017 9.26537 19.1024 9.92982L15.8349 12.3038C15.4259 12.601 15.2547 13.1277 15.411 13.6085L16.6591 17.4498C17.0084 18.5248 15.7779 19.4188 14.8634 18.7544L11.5958 16.3804C11.1868 16.0832 10.633 16.0832 10.224 16.3804L6.95643 18.7544C6.04191 19.4188 4.81141 18.5248 5.16073 17.4498L6.40883 13.6085C6.56505 13.1277 6.39391 12.601 5.98492 12.3038L2.71736 9.92982C1.80283 9.26538 2.27283 7.81885 3.40325 7.81885H7.44219C7.94773 7.81885 8.39577 7.49332 8.55199 7.01253L9.80009 3.17127Z" fill="#FFF506"/>
</g>
<defs>
<filter id="filter0_d_8_788" x="0.62459" y="0.755403" width="20.5706" height="19.8367" filterUnits="userSpaceOnUse" color-interpolation-filters="sRGB">
<feFlood flood-opacity="0" result="BackgroundImageFix"/>
<feColorMatrix in="SourceAlpha" type="matrix" values="0 0 0 0 0 0 0 0 0 0 0 0 0 0 0 0 0 0 127 0" result="hardAlpha"/>
<feOffset/>
<feGaussianBlur stdDeviation="0.804771"/>
<feComposite in2="hardAlpha" operator="out"/>
<feColorMatrix type="matrix" values="0 0 0 0 0 0 0 0 0 0 0 0 0 0 0 0 0 0 0.5 0"/>
<feBlend mode="normal" in2="BackgroundImageFix" result="effect1_dropShadow_8_788"/>
<feBlend mode="normal" in="SourceGraphic" in2="effect1_dropShadow_8_788" result="shape"/>
</filter>
</defs>
</svg>
