<svg width="30" height="34" viewBox="0 0 30 34" fill="none" xmlns="http://www.w3.org/2000/svg">
<path d="M29.7174 25.1614C29.2968 24.463 28.5116 24.1185 27.7113 24.2637C24.5321 24.8778 21.2745 24.0435 18.7726 21.9764C16.2262 19.8741 14.7662 16.7641 14.7662 13.4432C14.7662 9.48708 16.8813 5.81224 20.2854 3.85528C20.9944 3.44985 21.3635 2.66471 21.2264 1.85617C21.0905 1.04995 20.4847 0.431231 19.6808 0.281238C18.8312 0.124194 17.4953 0 16.6411 0C7.46569 0 0 7.53717 0 16.7993C0 26.0613 7.46569 33.5985 16.6411 33.5985C21.6799 33.5985 26.3918 31.3299 29.5721 27.3738C30.0842 26.7317 30.1416 25.8645 29.7174 25.1614ZM16.6411 31.1986C8.78871 31.1986 2.39989 24.7395 2.39989 16.7993C2.39989 8.85898 8.78871 2.39989 16.6411 2.39989C17.0078 2.39989 17.5059 2.43034 17.998 2.47721C14.4954 4.97558 12.3663 9.06755 12.3663 13.4432C12.3663 17.4813 14.1439 21.2662 17.2445 23.8279C19.9631 26.073 23.4071 27.1183 26.884 26.8043C24.2052 29.612 20.5362 31.1986 16.6411 31.1986Z" fill="#1F1F1F"/>
</svg>
