<svg width="25" height="29" viewBox="0 0 25 29" fill="none" xmlns="http://www.w3.org/2000/svg">
<path d="M25 11.7171C22.5425 11.723 20.1453 10.9566 18.147 9.5262V19.5023C18.1463 21.35 17.5816 23.1534 16.5283 24.6715C15.475 26.1895 13.9833 27.3498 12.2528 27.9973C10.5222 28.6447 8.63527 28.7483 6.84422 28.2944C5.05317 27.8404 3.4434 26.8505 2.23015 25.4569C1.01691 24.0634 0.258023 22.3326 0.054967 20.4961C-0.148089 18.6596 0.214364 16.8049 1.09386 15.18C1.97336 13.555 3.32798 12.2373 4.97659 11.4031C6.6252 10.5688 8.48922 10.2577 10.3194 10.5114V15.5291C9.48191 15.2656 8.58259 15.2736 7.74988 15.5517C6.91716 15.8299 6.19363 16.3641 5.68262 17.078C5.1716 17.7919 4.89923 18.649 4.9044 19.5269C4.90957 20.4049 5.19202 21.2587 5.71141 21.9666C6.2308 22.6744 6.96057 23.2 7.7965 23.4683C8.63244 23.7367 9.53179 23.734 10.3661 23.4607C11.2005 23.1875 11.9271 22.6575 12.4423 21.9467C12.9575 21.2358 13.2349 20.3803 13.2349 19.5023V0H18.147C18.1436 0.414819 18.1784 0.829072 18.2508 1.23752C18.4215 2.14933 18.7764 3.01673 19.2939 3.78666C19.8113 4.5566 20.4803 5.21289 21.2601 5.71538C22.3694 6.44891 23.6701 6.83987 25 6.83959V11.7171Z" fill="#5E95FF"/>
</svg>
